<mxfile host="app.diagrams.net" agent="Mozilla/5.0 (Windows NT 10.0; Win64; x64) AppleWebKit/537.36 (KHTML, like Gecko) Chrome/130.0.0.0 Safari/537.36" version="24.8.4">
  <diagram name="Sayfa -1" id="WN0h-Ik5UM95K4biy5bp">
    <mxGraphModel dx="1576" dy="1981" grid="1" gridSize="10" guides="1" tooltips="1" connect="1" arrows="1" fold="1" page="1" pageScale="1" pageWidth="827" pageHeight="1169" math="0" shadow="0">
      <root>
        <mxCell id="0" />
        <mxCell id="1" parent="0" />
        <mxCell id="-GSCJKlwsIB9KxYVpvvT-14" value="" style="html=1;points=[[0,0,0,0,5],[0,1,0,0,-5],[1,0,0,0,5],[1,1,0,0,-5]];perimeter=orthogonalPerimeter;outlineConnect=0;targetShapes=umlLifeline;portConstraint=eastwest;newEdgeStyle={&quot;curved&quot;:0,&quot;rounded&quot;:0};labelBackgroundColor=none;" vertex="1" parent="1">
          <mxGeometry x="-30.5" y="39.5" width="10" height="232" as="geometry" />
        </mxCell>
        <mxCell id="-GSCJKlwsIB9KxYVpvvT-17" value="alt" style="shape=umlFrame;whiteSpace=wrap;html=1;pointerEvents=0;labelBackgroundColor=none;" vertex="1" parent="1">
          <mxGeometry x="-38" y="131" width="354" height="127" as="geometry" />
        </mxCell>
        <mxCell id="-GSCJKlwsIB9KxYVpvvT-18" value="" style="line;strokeWidth=1;fillColor=none;align=left;verticalAlign=middle;spacingTop=-1;spacingLeft=3;spacingRight=3;rotatable=0;labelPosition=right;points=[];portConstraint=eastwest;dashed=1;labelBackgroundColor=none;" vertex="1" parent="1">
          <mxGeometry x="-38" y="205" width="351" height="8" as="geometry" />
        </mxCell>
        <mxCell id="-GSCJKlwsIB9KxYVpvvT-19" value="loginInfo == true" style="text;html=1;align=center;verticalAlign=middle;resizable=0;points=[];autosize=1;strokeColor=none;fillColor=none;labelBackgroundColor=none;" vertex="1" parent="1">
          <mxGeometry x="22" y="131" width="105" height="26" as="geometry" />
        </mxCell>
        <mxCell id="-GSCJKlwsIB9KxYVpvvT-20" value="loginInfo == false" style="text;html=1;align=center;verticalAlign=middle;resizable=0;points=[];autosize=1;strokeColor=none;fillColor=none;labelBackgroundColor=none;" vertex="1" parent="1">
          <mxGeometry x="-23" y="210" width="109" height="26" as="geometry" />
        </mxCell>
        <mxCell id="-GSCJKlwsIB9KxYVpvvT-21" value="&lt;font style=&quot;font-size: 12px;&quot;&gt;print Error message&lt;/font&gt;" style="html=1;verticalAlign=bottom;endArrow=open;endSize=8;curved=0;rounded=0;dashed=1;labelBackgroundColor=none;fontColor=default;" edge="1" parent="1">
          <mxGeometry relative="1" as="geometry">
            <mxPoint x="284" y="239.5" as="sourcePoint" />
            <mxPoint x="-20" y="239.5" as="targetPoint" />
          </mxGeometry>
        </mxCell>
        <mxCell id="-GSCJKlwsIB9KxYVpvvT-22" value="loop" style="shape=umlFrame;whiteSpace=wrap;html=1;pointerEvents=0;labelBackgroundColor=none;" vertex="1" parent="1">
          <mxGeometry x="-96" y="35" width="427" height="241" as="geometry" />
        </mxCell>
        <mxCell id="-GSCJKlwsIB9KxYVpvvT-23" value="&lt;font style=&quot;font-size: 12px;&quot;&gt;print succesful message&lt;/font&gt;" style="html=1;verticalAlign=bottom;endArrow=open;dashed=1;endSize=8;curved=0;rounded=0;labelBackgroundColor=none;fontColor=default;" edge="1" parent="1">
          <mxGeometry relative="1" as="geometry">
            <mxPoint x="284" y="180.5" as="sourcePoint" />
            <mxPoint x="-20" y="180.5" as="targetPoint" />
          </mxGeometry>
        </mxCell>
        <mxCell id="-GSCJKlwsIB9KxYVpvvT-24" value="&lt;font style=&quot;font-size: 12px;&quot;&gt;Entry the system&lt;/font&gt;" style="html=1;verticalAlign=bottom;startArrow=oval;startFill=1;endArrow=block;startSize=8;curved=0;rounded=0;labelBackgroundColor=none;fontColor=default;" edge="1" parent="1">
          <mxGeometry width="60" relative="1" as="geometry">
            <mxPoint x="-20" y="200" as="sourcePoint" />
            <mxPoint x="284" y="200" as="targetPoint" />
            <mxPoint as="offset" />
          </mxGeometry>
        </mxCell>
        <mxCell id="-GSCJKlwsIB9KxYVpvvT-41" value="" style="html=1;points=[[0,0,0,0,5],[0,1,0,0,-5],[1,0,0,0,5],[1,1,0,0,-5]];perimeter=orthogonalPerimeter;outlineConnect=0;targetShapes=umlLifeline;portConstraint=eastwest;newEdgeStyle={&quot;curved&quot;:0,&quot;rounded&quot;:0};labelBackgroundColor=none;" vertex="1" parent="1">
          <mxGeometry x="275" y="41" width="10" height="229" as="geometry" />
        </mxCell>
        <mxCell id="-GSCJKlwsIB9KxYVpvvT-43" value="Student" style="shape=umlActor;verticalLabelPosition=bottom;verticalAlign=top;html=1;outlineConnect=0;" vertex="1" parent="1">
          <mxGeometry x="-40.5" y="-180" width="30" height="60" as="geometry" />
        </mxCell>
        <mxCell id="-GSCJKlwsIB9KxYVpvvT-44" value="System" style="rounded=0;whiteSpace=wrap;html=1;" vertex="1" parent="1">
          <mxGeometry x="231" y="-165" width="100" height="45" as="geometry" />
        </mxCell>
        <mxCell id="-GSCJKlwsIB9KxYVpvvT-51" value="" style="endArrow=none;dashed=1;html=1;rounded=0;entryX=0.5;entryY=1;entryDx=0;entryDy=0;" edge="1" parent="1" source="-GSCJKlwsIB9KxYVpvvT-41" target="-GSCJKlwsIB9KxYVpvvT-44">
          <mxGeometry width="50" height="50" relative="1" as="geometry">
            <mxPoint x="281" y="30" as="sourcePoint" />
            <mxPoint x="310" y="-110" as="targetPoint" />
          </mxGeometry>
        </mxCell>
        <mxCell id="-GSCJKlwsIB9KxYVpvvT-52" value="" style="endArrow=none;dashed=1;html=1;rounded=0;entryX=0.5;entryY=1;entryDx=0;entryDy=0;" edge="1" parent="1" source="-GSCJKlwsIB9KxYVpvvT-14">
          <mxGeometry width="50" height="50" relative="1" as="geometry">
            <mxPoint x="-25.870000000000005" y="35" as="sourcePoint" />
            <mxPoint x="-25.870000000000005" y="-126" as="targetPoint" />
          </mxGeometry>
        </mxCell>
        <mxCell id="-GSCJKlwsIB9KxYVpvvT-54" value="login(personID, password)" style="html=1;verticalAlign=bottom;startArrow=oval;endArrow=block;startSize=8;curved=0;rounded=0;labelBackgroundColor=none;fontColor=default;" edge="1" parent="1">
          <mxGeometry relative="1" as="geometry">
            <mxPoint x="-30" y="57" as="sourcePoint" />
            <mxPoint x="275" y="57" as="targetPoint" />
          </mxGeometry>
        </mxCell>
      </root>
    </mxGraphModel>
  </diagram>
</mxfile>
